 [img]http://img841.imageshack.us/img841/4033/flowersr.jpg[/img]
[code]
TITLE: 

The Flowers Of War 2011 R6 - PDVD XViD - INSPiRAL
IMDB: 
 
http://www.imdb.com/title/tt1410063/

SOURCES:

VIDEO - Playx
AUDIO - Playx
SUBS  - Already HC both eng and chinese

STATS:

Video
ID                               : 0
Format                           : MPEG-4 Visual
Format profile                   : Advanced Simple@L5
Format settings, BVOP            : 2
Format settings, QPel            : No
Format settings, GMC             : No warppoints
Format settings, Matrix          : Default (MPEG)
Muxing mode                      : Packed bitstream
Codec ID                         : XVID
Codec ID/Hint                    : XviD
Duration                         : 2h 25mn
Bit rate                         : 1 217 Kbps
Width                            : 640 pixels
Height                           : 280 pixels
Display aspect ratio             : 2.25:1
Frame rate                       : 25.000 fps
Color space                      : YUV
Chroma subsampling               : 4:2:0
Bit depth                        : 8 bits
Scan type                        : Progressive
Compression mode                 : Lossy
Bits/(Pixel*Frame)               : 0.272
Stream size                      : 1.24 GiB (90%)
Writing library                  : XviD 64

Audio
ID                               : 1
Format                           : MPEG Audio
Format version                   : Version 1
Format profile                   : Layer 3
Mode                             : Joint stereo
Mode extension                   : MS Stereo
Codec ID                         : 55
Codec ID/Hint                    : MP3
Duration                         : 2h 25mn
Bit rate mode                    : Constant
Bit rate                         : 128 Kbps
Channel(s)                       : 2 channels
Sampling rate                    : 44.1 KHz
Compression mode                 : Lossy
Delay relative to video          : 18ms
Stream size                      : 133 MiB (9%)
Alignment                        : Split accross interleaves
Interleave, duration             : 40 ms (1.00 video frame)
Interleave, preload duration     : 500 ms



NOTES:

Thanks to play for bringing this too the table .....
Work done,well messed with the brightness,contrast,colour and also added just + 9 sharpness ....
Audio is untouched as it sounded fine the way it was.
Source itself was decent,but just needed some TLC and its in english with some chinese spoken parts but it contains
HC subs for both langs throughout.

Readnfo &lt;&lt;&lt;&lt; well unsure what to tag it lmfao ...defo not any type of screener unless it was capped by a cam.The subs if u look
close are not dead level ...slightly higher on the left,so guessing it could be a poor TC transfer.
So to me this is a R6/PDVD ....basically a transfer of xx to dvd.
[/code]
Screens:
[img]http://img201.imageshack.us/img201/8617/93557705.png[/img]
[img]http://img822.imageshack.us/img822/5096/74031929.png[/img]
[img]http://img221.imageshack.us/img221/193/22105335p.png[/img]
[img]http://img832.imageshack.us/img832/9604/70523711.png[/img] 